<svg width="953" height="289" viewBox="0 0 953 289" fill="none" xmlns="http://www.w3.org/2000/svg">
<rect y="67" width="831" height="222" rx="50" fill="#FFDBBF"/>
<path d="M155.08 124.469L161.184 141.241L167.287 124.469H168.459L161.184 144.452L153.921 124.469H155.08ZM183.015 130.926C184.87 130.926 186.449 131.581 187.751 132.892C189.061 134.202 189.716 135.785 189.716 137.64C189.716 139.487 189.061 141.066 187.751 142.376C186.449 143.687 184.87 144.342 183.015 144.342C181.167 144.342 179.589 143.687 178.278 142.376C176.968 141.066 176.313 139.487 176.313 137.64C176.313 135.785 176.968 134.202 178.278 132.892C179.589 131.581 181.167 130.926 183.015 130.926ZM183.015 132.098C181.485 132.098 180.179 132.639 179.096 133.722C178.014 134.804 177.473 136.11 177.473 137.64C177.473 139.17 178.014 140.476 179.096 141.559C180.179 142.633 181.485 143.17 183.015 143.17C184.545 143.17 185.851 142.633 186.933 141.559C188.016 140.476 188.557 139.17 188.557 137.64C188.557 136.11 188.016 134.804 186.933 133.722C185.851 132.639 184.545 132.098 183.015 132.098ZM205.09 144.171C203.593 144.171 202.4 143.727 201.513 142.84C200.626 141.953 200.171 140.834 200.146 139.483V132.013H201.245V139.386C201.245 140.403 201.615 141.27 202.356 141.986C203.088 142.71 203.995 143.072 205.078 143.072C206.087 143.072 206.958 142.714 207.69 141.998C208.431 141.274 208.801 140.403 208.801 139.386V132.013H209.9V139.483C209.875 140.834 209.419 141.953 208.532 142.84C207.645 143.727 206.498 144.171 205.09 144.171ZM224.37 137.835C223.434 137.331 222.787 136.9 222.429 136.542C221.867 135.98 221.587 135.305 221.587 134.515C221.587 133.718 221.867 133.038 222.429 132.477C222.99 131.907 223.666 131.622 224.455 131.622C225.253 131.622 225.912 131.882 226.433 132.403C226.937 132.916 227.19 133.498 227.19 134.149V134.21L226.237 134.588C226.156 133.97 225.961 133.506 225.652 133.197C225.35 132.888 224.952 132.733 224.455 132.733C223.967 132.733 223.548 132.908 223.198 133.258C222.848 133.6 222.673 134.019 222.673 134.515C222.673 135.003 222.848 135.423 223.198 135.772C223.401 135.976 223.833 136.285 224.492 136.7C225.534 137.27 226.274 137.774 226.714 138.214C227.405 138.914 227.751 139.748 227.751 140.716C227.751 141.709 227.405 142.556 226.714 143.255C226.022 143.947 225.184 144.293 224.199 144.293C223.214 144.293 222.376 143.947 221.684 143.255C220.993 142.556 220.647 141.791 220.647 140.96L221.733 140.68C221.733 141.396 221.973 141.994 222.453 142.474C222.942 142.954 223.523 143.194 224.199 143.194C224.874 143.194 225.452 142.954 225.932 142.474C226.421 141.994 226.665 141.408 226.665 140.716C226.665 140.041 226.425 139.463 225.945 138.983C225.684 138.722 225.159 138.34 224.37 137.835ZM267.446 144H266.347V141.559C266.136 141.843 265.904 142.116 265.652 142.376C264.341 143.687 262.758 144.342 260.903 144.342C259.056 144.342 257.477 143.687 256.167 142.376C254.856 141.066 254.201 139.487 254.201 137.64C254.201 135.785 254.856 134.202 256.167 132.892C257.477 131.581 259.056 130.926 260.903 130.926C262.758 130.926 264.341 131.581 265.652 132.892C265.904 133.152 266.136 133.425 266.347 133.709V132.013H267.446V144ZM266.347 138.727V136.554C266.144 135.479 265.635 134.535 264.821 133.722C263.739 132.639 262.433 132.098 260.903 132.098C259.373 132.098 258.067 132.639 256.985 133.722C255.902 134.804 255.361 136.11 255.361 137.64C255.361 139.17 255.902 140.476 256.985 141.559C258.067 142.633 259.373 143.17 260.903 143.17C262.433 143.17 263.739 142.629 264.821 141.546C265.635 140.733 266.144 139.793 266.347 138.727ZM278.608 132.013H279.707V134.198C279.935 133.872 280.199 133.559 280.5 133.258C281.469 132.289 282.461 131.781 283.479 131.732V132.928C282.787 132.961 282.071 133.347 281.33 134.088C280.289 135.121 279.747 136.362 279.707 137.811V144H278.608V132.013ZM293.432 132.013H294.531V134.198C294.759 133.872 295.023 133.559 295.324 133.258C296.293 132.289 297.286 131.781 298.303 131.732V132.928C297.611 132.961 296.895 133.347 296.154 134.088C295.113 135.121 294.572 136.362 294.531 137.811V144H293.432V132.013ZM309.843 132.013V144H308.745V132.013H309.843ZM309.294 127.765C309.595 127.765 309.852 127.87 310.063 128.082C310.283 128.294 310.393 128.55 310.393 128.851C310.393 129.16 310.283 129.421 310.063 129.632C309.852 129.844 309.595 129.95 309.294 129.95C308.993 129.95 308.733 129.844 308.513 129.632C308.301 129.421 308.195 129.16 308.195 128.851C308.195 128.55 308.301 128.294 308.513 128.082C308.733 127.87 308.993 127.765 309.294 127.765ZM325.913 141.998L330.527 132.013H331.797L325.913 144.33L320.029 132.013H321.299L325.913 141.998ZM343.777 141.754C344.81 142.698 346.039 143.17 347.463 143.17C348.993 143.17 350.299 142.629 351.382 141.546C351.52 141.408 351.65 141.266 351.772 141.119L352.932 141.534C352.72 141.827 352.48 142.108 352.212 142.376C350.901 143.687 349.319 144.342 347.463 144.342C345.616 144.342 344.037 143.687 342.727 142.376C341.417 141.066 340.761 139.483 340.761 137.628C340.761 135.781 341.417 134.202 342.727 132.892C344.037 131.581 345.616 130.926 347.463 130.926C349.05 130.926 350.438 131.402 351.626 132.354C351.821 132.517 352.016 132.696 352.212 132.892C352.285 132.965 352.354 133.038 352.419 133.111L351.589 133.941L343.777 141.754ZM350.783 133.197C349.831 132.464 348.724 132.098 347.463 132.098C345.941 132.098 344.639 132.639 343.557 133.722C342.474 134.796 341.933 136.098 341.933 137.628C341.933 138.889 342.299 139.996 343.032 140.948L350.783 133.197ZM369.563 133.111H363.374V132.013H371.455L365.254 142.901H371.919V144H363.374L369.563 133.111ZM412.163 144H411.064V141.559C410.853 141.843 410.621 142.116 410.368 142.376C409.058 143.687 407.475 144.342 405.62 144.342C403.772 144.342 402.194 143.687 400.883 142.376C399.573 141.066 398.918 139.487 398.918 137.64C398.918 135.785 399.573 134.202 400.883 132.892C402.194 131.581 403.772 130.926 405.62 130.926C407.475 130.926 409.058 131.581 410.368 132.892C410.621 133.152 410.853 133.425 411.064 133.709V132.013H412.163V144ZM411.064 138.727V136.554C410.861 135.479 410.352 134.535 409.538 133.722C408.456 132.639 407.15 132.098 405.62 132.098C404.09 132.098 402.784 132.639 401.701 133.722C400.619 134.804 400.078 136.11 400.078 137.64C400.078 139.17 400.619 140.476 401.701 141.559C402.784 142.633 404.09 143.17 405.62 143.17C407.15 143.17 408.456 142.629 409.538 141.546C410.352 140.733 410.861 139.793 411.064 138.727ZM428.269 144.171C426.771 144.171 425.579 143.727 424.692 142.84C423.805 141.953 423.349 140.834 423.325 139.483V132.013H424.424V139.386C424.424 140.403 424.794 141.27 425.534 141.986C426.267 142.71 427.174 143.072 428.257 143.072C429.266 143.072 430.136 142.714 430.869 141.998C431.609 141.274 431.98 140.403 431.98 139.386V132.013H433.078V139.483C433.054 140.834 432.598 141.953 431.711 142.84C430.824 143.727 429.677 144.171 428.269 144.171ZM470.674 141.119L471.833 141.534C471.622 141.827 471.382 142.108 471.113 142.376C469.803 143.687 468.22 144.342 466.364 144.342C464.517 144.342 462.938 143.687 461.628 142.376C460.318 141.066 459.663 139.483 459.663 137.628C459.663 135.781 460.318 134.202 461.628 132.892C462.938 131.581 464.517 130.926 466.364 130.926C468.22 130.926 469.803 131.581 471.113 132.892C471.382 133.16 471.622 133.437 471.833 133.722L470.674 134.149C470.551 134.002 470.421 133.856 470.283 133.709C469.201 132.635 467.894 132.098 466.364 132.098C464.843 132.098 463.541 132.639 462.458 133.722C461.376 134.796 460.835 136.098 460.835 137.628C460.835 139.158 461.376 140.464 462.458 141.546C463.541 142.629 464.843 143.17 466.364 143.17C467.894 143.17 469.201 142.629 470.283 141.546C470.421 141.408 470.551 141.266 470.674 141.119ZM488.244 130.926C490.1 130.926 491.679 131.581 492.981 132.892C494.291 134.202 494.946 135.785 494.946 137.64C494.946 139.487 494.291 141.066 492.981 142.376C491.679 143.687 490.1 144.342 488.244 144.342C486.397 144.342 484.818 143.687 483.508 142.376C482.198 141.066 481.543 139.487 481.543 137.64C481.543 135.785 482.198 134.202 483.508 132.892C484.818 131.581 486.397 130.926 488.244 130.926ZM488.244 132.098C486.714 132.098 485.408 132.639 484.326 133.722C483.243 134.804 482.702 136.11 482.702 137.64C482.702 139.17 483.243 140.476 484.326 141.559C485.408 142.633 486.714 143.17 488.244 143.17C489.774 143.17 491.08 142.633 492.163 141.559C493.245 140.476 493.786 139.17 493.786 137.64C493.786 136.11 493.245 134.804 492.163 133.722C491.08 132.639 489.774 132.098 488.244 132.098ZM505.376 132.013H506.474V132.293C507.158 131.634 507.976 131.305 508.928 131.305C509.913 131.305 510.751 131.651 511.443 132.342C511.63 132.529 511.792 132.733 511.931 132.953C512.069 132.741 512.236 132.538 512.431 132.342C513.123 131.651 513.961 131.305 514.946 131.305C515.931 131.305 516.769 131.651 517.461 132.342C518.12 133.01 518.466 133.811 518.498 134.747V144H517.4V134.747H517.412C517.379 134.112 517.139 133.571 516.692 133.124C516.203 132.643 515.621 132.403 514.946 132.403C514.271 132.403 513.689 132.643 513.2 133.124C512.72 133.604 512.48 134.202 512.48 134.918V144H511.382V134.747H511.394C511.361 134.112 511.121 133.571 510.674 133.124C510.185 132.643 509.603 132.403 508.928 132.403C508.252 132.403 507.675 132.643 507.195 133.124C506.771 133.539 506.531 134.047 506.474 134.649V144H505.376V132.013ZM529.673 132.013H530.771V133.697C530.975 133.421 531.207 133.152 531.467 132.892C532.777 131.59 534.356 130.938 536.203 130.938C538.059 130.938 539.638 131.594 540.94 132.904C542.25 134.206 542.905 135.785 542.905 137.64C542.905 139.487 542.25 141.066 540.94 142.376C539.638 143.687 538.059 144.342 536.203 144.342C534.356 144.342 532.777 143.687 531.467 142.376C531.207 142.116 530.975 141.847 530.771 141.571V148.578H529.673V132.013ZM530.771 136.493V138.788C530.983 139.837 531.487 140.761 532.285 141.559C533.367 142.641 534.673 143.182 536.203 143.182C537.733 143.182 539.039 142.641 540.122 141.559C541.204 140.476 541.745 139.17 541.745 137.64C541.745 136.11 541.204 134.804 540.122 133.722C539.039 132.639 537.733 132.098 536.203 132.098C534.673 132.098 533.367 132.639 532.285 133.722C531.487 134.519 530.983 135.443 530.771 136.493ZM555.166 132.013V126.91H556.264V132.013H558.706V133.111H556.264V144H555.166V133.111H552.724V132.013H555.166ZM575.105 130.926C576.96 130.926 578.539 131.581 579.841 132.892C581.151 134.202 581.806 135.785 581.806 137.64C581.806 139.487 581.151 141.066 579.841 142.376C578.539 143.687 576.96 144.342 575.105 144.342C573.257 144.342 571.679 143.687 570.368 142.376C569.058 141.066 568.403 139.487 568.403 137.64C568.403 135.785 569.058 134.202 570.368 132.892C571.679 131.581 573.257 130.926 575.105 130.926ZM575.105 132.098C573.575 132.098 572.269 132.639 571.186 133.722C570.104 134.804 569.563 136.11 569.563 137.64C569.563 139.17 570.104 140.476 571.186 141.559C572.269 142.633 573.575 143.17 575.105 143.17C576.635 143.17 577.941 142.633 579.023 141.559C580.105 140.476 580.647 139.17 580.647 137.64C580.647 136.11 580.105 134.804 579.023 133.722C577.941 132.639 576.635 132.098 575.105 132.098ZM593.579 132.013V144H592.48V132.013H593.579ZM593.029 127.765C593.331 127.765 593.587 127.87 593.799 128.082C594.018 128.294 594.128 128.55 594.128 128.851C594.128 129.16 594.018 129.421 593.799 129.632C593.587 129.844 593.331 129.95 593.029 129.95C592.728 129.95 592.468 129.844 592.248 129.632C592.037 129.421 591.931 129.16 591.931 128.851C591.931 128.55 592.037 128.294 592.248 128.082C592.468 127.87 592.728 127.765 593.029 127.765ZM604.985 132.013H606.084V134.198C606.312 133.872 606.576 133.559 606.877 133.258C607.846 132.289 608.838 131.781 609.856 131.732V132.928C609.164 132.961 608.448 133.347 607.707 134.088C606.666 135.121 606.124 136.362 606.084 137.811V144H604.985V132.013ZM638.235 141.754C639.268 142.698 640.497 143.17 641.921 143.17C643.451 143.17 644.757 142.629 645.84 141.546C645.978 141.408 646.108 141.266 646.23 141.119L647.39 141.534C647.178 141.827 646.938 142.108 646.67 142.376C645.359 143.687 643.777 144.342 641.921 144.342C640.074 144.342 638.495 143.687 637.185 142.376C635.875 141.066 635.219 139.483 635.219 137.628C635.219 135.781 635.875 134.202 637.185 132.892C638.495 131.581 640.074 130.926 641.921 130.926C643.508 130.926 644.896 131.402 646.084 132.354C646.279 132.517 646.474 132.696 646.67 132.892C646.743 132.965 646.812 133.038 646.877 133.111L646.047 133.941L638.235 141.754ZM645.241 133.197C644.289 132.464 643.182 132.098 641.921 132.098C640.399 132.098 639.097 132.639 638.015 133.722C636.932 134.796 636.391 136.098 636.391 137.628C636.391 138.889 636.757 139.996 637.49 140.948L645.241 133.197ZM659.541 132.013V126.91H660.639V132.013H663.081V133.111H660.639V144H659.541V133.111H657.099V132.013H659.541ZM158.437 166.835C157.501 166.331 156.854 165.9 156.496 165.542C155.935 164.98 155.654 164.305 155.654 163.515C155.654 162.718 155.935 162.038 156.496 161.477C157.058 160.907 157.733 160.622 158.523 160.622C159.32 160.622 159.979 160.882 160.5 161.403C161.005 161.916 161.257 162.498 161.257 163.149V163.21L160.305 163.588C160.223 162.97 160.028 162.506 159.719 162.197C159.418 161.888 159.019 161.733 158.523 161.733C158.034 161.733 157.615 161.908 157.265 162.258C156.915 162.6 156.74 163.019 156.74 163.515C156.74 164.003 156.915 164.423 157.265 164.772C157.469 164.976 157.9 165.285 158.559 165.7C159.601 166.27 160.341 166.774 160.781 167.214C161.473 167.914 161.819 168.748 161.819 169.716C161.819 170.709 161.473 171.556 160.781 172.255C160.089 172.947 159.251 173.293 158.266 173.293C157.282 173.293 156.443 172.947 155.752 172.255C155.06 171.556 154.714 170.791 154.714 169.96L155.8 169.68C155.8 170.396 156.041 170.994 156.521 171.474C157.009 171.954 157.591 172.194 158.266 172.194C158.942 172.194 159.52 171.954 160 171.474C160.488 170.994 160.732 170.408 160.732 169.716C160.732 169.041 160.492 168.463 160.012 167.983C159.751 167.722 159.227 167.34 158.437 166.835ZM178.401 159.926C180.256 159.926 181.835 160.581 183.137 161.892C184.447 163.202 185.102 164.785 185.102 166.64C185.102 168.487 184.447 170.066 183.137 171.376C181.835 172.687 180.256 173.342 178.401 173.342C176.553 173.342 174.974 172.687 173.664 171.376C172.354 170.066 171.699 168.487 171.699 166.64C171.699 164.785 172.354 163.202 173.664 161.892C174.974 160.581 176.553 159.926 178.401 159.926ZM178.401 161.098C176.871 161.098 175.564 161.639 174.482 162.722C173.4 163.804 172.859 165.11 172.859 166.64C172.859 168.17 173.4 169.476 174.482 170.559C175.564 171.633 176.871 172.17 178.401 172.17C179.931 172.17 181.237 171.633 182.319 170.559C183.401 169.476 183.943 168.17 183.943 166.64C183.943 165.11 183.401 163.804 182.319 162.722C181.237 161.639 179.931 161.098 178.401 161.098ZM200.476 173.171C198.978 173.171 197.786 172.727 196.899 171.84C196.012 170.953 195.556 169.834 195.532 168.483V161.013H196.631V168.386C196.631 169.403 197.001 170.27 197.741 170.986C198.474 171.71 199.381 172.072 200.464 172.072C201.473 172.072 202.343 171.714 203.076 170.998C203.816 170.274 204.187 169.403 204.187 168.386V161.013H205.285V168.483C205.261 169.834 204.805 170.953 203.918 171.84C203.031 172.727 201.884 173.171 200.476 173.171ZM216.46 153.469H217.558V161.635C218.486 160.74 219.601 160.292 220.903 160.292C222.319 160.292 223.471 160.736 224.358 161.623C225.245 162.51 225.7 163.629 225.725 164.98V173H224.626V165.078C224.626 164.06 224.256 163.194 223.515 162.478C222.783 161.753 221.912 161.391 220.903 161.391C219.894 161.391 219.023 161.745 218.291 162.453C217.965 162.779 217.721 163.116 217.558 163.466V173H216.46V153.469ZM249.839 173H248.74V170.559C248.528 170.843 248.296 171.116 248.044 171.376C246.734 172.687 245.151 173.342 243.296 173.342C241.448 173.342 239.869 172.687 238.559 171.376C237.249 170.066 236.594 168.487 236.594 166.64C236.594 164.785 237.249 163.202 238.559 161.892C239.869 160.581 241.448 159.926 243.296 159.926C245.151 159.926 246.734 160.581 248.044 161.892C248.296 162.152 248.528 162.425 248.74 162.709V161.013H249.839V173ZM248.74 167.727V165.554C248.536 164.479 248.028 163.535 247.214 162.722C246.132 161.639 244.826 161.098 243.296 161.098C241.766 161.098 240.459 161.639 239.377 162.722C238.295 163.804 237.754 165.11 237.754 166.64C237.754 168.17 238.295 169.476 239.377 170.559C240.459 171.633 241.766 172.17 243.296 172.17C244.826 172.17 246.132 171.629 247.214 170.546C248.028 169.733 248.536 168.793 248.74 167.727ZM262.343 161.013V173H261.245V161.013H262.343ZM261.794 156.765C262.095 156.765 262.352 156.87 262.563 157.082C262.783 157.294 262.893 157.55 262.893 157.851C262.893 158.16 262.783 158.421 262.563 158.632C262.352 158.844 262.095 158.95 261.794 158.95C261.493 158.95 261.233 158.844 261.013 158.632C260.801 158.421 260.695 158.16 260.695 157.851C260.695 157.55 260.801 157.294 261.013 157.082C261.233 156.87 261.493 156.765 261.794 156.765ZM275.459 161.013V155.91H276.557V161.013H278.999V162.111H276.557V173H275.459V162.111H273.017V161.013H275.459ZM291.711 170.754C292.745 171.698 293.973 172.17 295.398 172.17C296.928 172.17 298.234 171.629 299.316 170.546C299.454 170.408 299.585 170.266 299.707 170.119L300.866 170.534C300.655 170.827 300.415 171.108 300.146 171.376C298.836 172.687 297.253 173.342 295.398 173.342C293.55 173.342 291.972 172.687 290.661 171.376C289.351 170.066 288.696 168.483 288.696 166.628C288.696 164.781 289.351 163.202 290.661 161.892C291.972 160.581 293.55 159.926 295.398 159.926C296.985 159.926 298.372 160.402 299.56 161.354C299.756 161.517 299.951 161.696 300.146 161.892C300.219 161.965 300.289 162.038 300.354 162.111L299.524 162.941L291.711 170.754ZM298.718 162.197C297.766 161.464 296.659 161.098 295.398 161.098C293.876 161.098 292.574 161.639 291.491 162.722C290.409 163.796 289.868 165.098 289.868 166.628C289.868 167.889 290.234 168.996 290.966 169.948L298.718 162.197ZM317.497 162.111H311.308V161.013H319.389L313.188 171.901H319.853V173H311.308L317.497 162.111ZM349.441 170.754C350.474 171.698 351.703 172.17 353.127 172.17C354.657 172.17 355.963 171.629 357.046 170.546C357.184 170.408 357.314 170.266 357.436 170.119L358.596 170.534C358.384 170.827 358.144 171.108 357.876 171.376C356.565 172.687 354.983 173.342 353.127 173.342C351.28 173.342 349.701 172.687 348.391 171.376C347.081 170.066 346.425 168.483 346.425 166.628C346.425 164.781 347.081 163.202 348.391 161.892C349.701 160.581 351.28 159.926 353.127 159.926C354.714 159.926 356.102 160.402 357.29 161.354C357.485 161.517 357.68 161.696 357.876 161.892C357.949 161.965 358.018 162.038 358.083 162.111L357.253 162.941L349.441 170.754ZM356.447 162.197C355.495 161.464 354.389 161.098 353.127 161.098C351.605 161.098 350.303 161.639 349.221 162.722C348.139 163.796 347.597 165.098 347.597 166.628C347.597 167.889 347.964 168.996 348.696 169.948L356.447 162.197ZM370.136 163.686V173H369.038V161.013H370.136V161.782C371.137 160.789 372.301 160.292 373.628 160.292C375.044 160.292 376.195 160.736 377.082 161.623C377.969 162.51 378.425 163.629 378.449 164.98V173H377.351V165.078C377.351 164.06 376.98 163.194 376.24 162.478C375.507 161.753 374.637 161.391 373.628 161.391C372.618 161.391 371.748 161.745 371.015 162.453C370.617 162.852 370.324 163.263 370.136 163.686ZM409.062 166.835C408.126 166.331 407.479 165.9 407.121 165.542C406.56 164.98 406.279 164.305 406.279 163.515C406.279 162.718 406.56 162.038 407.121 161.477C407.683 160.907 408.358 160.622 409.148 160.622C409.945 160.622 410.604 160.882 411.125 161.403C411.63 161.916 411.882 162.498 411.882 163.149V163.21L410.93 163.588C410.848 162.97 410.653 162.506 410.344 162.197C410.043 161.888 409.644 161.733 409.148 161.733C408.659 161.733 408.24 161.908 407.89 162.258C407.54 162.6 407.365 163.019 407.365 163.515C407.365 164.003 407.54 164.423 407.89 164.772C408.094 164.976 408.525 165.285 409.184 165.7C410.226 166.27 410.966 166.774 411.406 167.214C412.098 167.914 412.444 168.748 412.444 169.716C412.444 170.709 412.098 171.556 411.406 172.255C410.714 172.947 409.876 173.293 408.891 173.293C407.907 173.293 407.068 172.947 406.377 172.255C405.685 171.556 405.339 170.791 405.339 169.96L406.425 169.68C406.425 170.396 406.666 170.994 407.146 171.474C407.634 171.954 408.216 172.194 408.891 172.194C409.567 172.194 410.145 171.954 410.625 171.474C411.113 170.994 411.357 170.408 411.357 169.716C411.357 169.041 411.117 168.463 410.637 167.983C410.376 167.722 409.852 167.34 409.062 166.835ZM435.996 173H434.897V170.559C434.686 170.843 434.454 171.116 434.201 171.376C432.891 172.687 431.308 173.342 429.453 173.342C427.605 173.342 426.027 172.687 424.716 171.376C423.406 170.066 422.751 168.487 422.751 166.64C422.751 164.785 423.406 163.202 424.716 161.892C426.027 160.581 427.605 159.926 429.453 159.926C431.308 159.926 432.891 160.581 434.201 161.892C434.454 162.152 434.686 162.425 434.897 162.709V161.013H435.996V173ZM434.897 167.727V165.554C434.694 164.479 434.185 163.535 433.371 162.722C432.289 161.639 430.983 161.098 429.453 161.098C427.923 161.098 426.617 161.639 425.534 162.722C424.452 163.804 423.911 165.11 423.911 166.64C423.911 168.17 424.452 169.476 425.534 170.559C426.617 171.633 427.923 172.17 429.453 172.17C430.983 172.17 432.289 171.629 433.371 170.546C434.185 169.733 434.694 168.793 434.897 167.727ZM451.821 170.998L456.435 161.013H457.705L451.821 173.33L445.937 161.013H447.207L451.821 170.998ZM473.371 159.926C475.227 159.926 476.806 160.581 478.108 161.892C479.418 163.202 480.073 164.785 480.073 166.64C480.073 168.487 479.418 170.066 478.108 171.376C476.806 172.687 475.227 173.342 473.371 173.342C471.524 173.342 469.945 172.687 468.635 171.376C467.325 170.066 466.67 168.487 466.67 166.64C466.67 164.785 467.325 163.202 468.635 161.892C469.945 160.581 471.524 159.926 473.371 159.926ZM473.371 161.098C471.841 161.098 470.535 161.639 469.453 162.722C468.37 163.804 467.829 165.11 467.829 166.64C467.829 168.17 468.37 169.476 469.453 170.559C470.535 171.633 471.841 172.17 473.371 172.17C474.901 172.17 476.207 171.633 477.29 170.559C478.372 169.476 478.913 168.17 478.913 166.64C478.913 165.11 478.372 163.804 477.29 162.722C476.207 161.639 474.901 161.098 473.371 161.098ZM491.845 161.013V173H490.747V161.013H491.845ZM491.296 156.765C491.597 156.765 491.854 156.87 492.065 157.082C492.285 157.294 492.395 157.55 492.395 157.851C492.395 158.16 492.285 158.421 492.065 158.632C491.854 158.844 491.597 158.95 491.296 158.95C490.995 158.95 490.735 158.844 490.515 158.632C490.303 158.421 490.197 158.16 490.197 157.851C490.197 157.55 490.303 157.294 490.515 157.082C490.735 156.87 490.995 156.765 491.296 156.765ZM503.252 161.013H504.35V163.198C504.578 162.872 504.843 162.559 505.144 162.258C506.112 161.289 507.105 160.781 508.122 160.732V161.928C507.431 161.961 506.714 162.347 505.974 163.088C504.932 164.121 504.391 165.362 504.35 166.811V173H503.252V161.013ZM168.081 202H166.982V199.559C166.771 199.843 166.539 200.116 166.286 200.376C164.976 201.687 163.393 202.342 161.538 202.342C159.69 202.342 158.112 201.687 156.801 200.376C155.491 199.066 154.836 197.487 154.836 195.64C154.836 193.785 155.491 192.202 156.801 190.892C158.112 189.581 159.69 188.926 161.538 188.926C163.393 188.926 164.976 189.581 166.286 190.892C166.539 191.152 166.771 191.425 166.982 191.709V182.469H168.081V202ZM166.982 196.727V194.554C166.779 193.479 166.27 192.535 165.456 191.722C164.374 190.639 163.068 190.098 161.538 190.098C160.008 190.098 158.702 190.639 157.619 191.722C156.537 192.804 155.996 194.11 155.996 195.64C155.996 197.17 156.537 198.476 157.619 199.559C158.702 200.633 160.008 201.17 161.538 201.17C163.068 201.17 164.374 200.629 165.456 199.546C166.27 198.733 166.779 197.793 166.982 196.727ZM192.182 202H191.084V199.559C190.872 199.843 190.64 200.116 190.388 200.376C189.078 201.687 187.495 202.342 185.639 202.342C183.792 202.342 182.213 201.687 180.903 200.376C179.593 199.066 178.938 197.487 178.938 195.64C178.938 193.785 179.593 192.202 180.903 190.892C182.213 189.581 183.792 188.926 185.639 188.926C187.495 188.926 189.078 189.581 190.388 190.892C190.64 191.152 190.872 191.425 191.084 191.709V190.013H192.182V202ZM191.084 196.727V194.554C190.88 193.479 190.372 192.535 189.558 191.722C188.475 190.639 187.169 190.098 185.639 190.098C184.109 190.098 182.803 190.639 181.721 191.722C180.639 192.804 180.097 194.11 180.097 195.64C180.097 197.17 180.639 198.476 181.721 199.559C182.803 200.633 184.109 201.17 185.639 201.17C187.169 201.17 188.475 200.629 189.558 199.546C190.372 198.733 190.88 197.793 191.084 196.727ZM208.007 199.998L212.622 190.013H213.891L208.007 202.33L202.124 190.013H203.393L208.007 199.998ZM236.406 202H235.307V199.559C235.096 199.843 234.864 200.116 234.611 200.376C233.301 201.687 231.718 202.342 229.863 202.342C228.016 202.342 226.437 201.687 225.127 200.376C223.816 199.066 223.161 197.487 223.161 195.64C223.161 193.785 223.816 192.202 225.127 190.892C226.437 189.581 228.016 188.926 229.863 188.926C231.718 188.926 233.301 189.581 234.611 190.892C234.864 191.152 235.096 191.425 235.307 191.709V190.013H236.406V202ZM235.307 196.727V194.554C235.104 193.479 234.595 192.535 233.781 191.722C232.699 190.639 231.393 190.098 229.863 190.098C228.333 190.098 227.027 190.639 225.945 191.722C224.862 192.804 224.321 194.11 224.321 195.64C224.321 197.17 224.862 198.476 225.945 199.559C227.027 200.633 228.333 201.17 229.863 201.17C231.393 201.17 232.699 200.629 233.781 199.546C234.595 198.733 235.104 197.793 235.307 196.727ZM248.667 192.686V202H247.568V190.013H248.667V190.782C249.668 189.789 250.831 189.292 252.158 189.292C253.574 189.292 254.725 189.736 255.612 190.623C256.5 191.51 256.955 192.629 256.98 193.98V202H255.881V194.078C255.881 193.06 255.511 192.194 254.77 191.478C254.038 190.753 253.167 190.391 252.158 190.391C251.149 190.391 250.278 190.745 249.546 191.453C249.147 191.852 248.854 192.263 248.667 192.686ZM269.863 190.013V184.91H270.962V190.013H273.403V191.111H270.962V202H269.863V191.111H267.422V190.013H269.863ZM296.772 202H295.674V199.559C295.462 199.843 295.23 200.116 294.978 200.376C293.667 201.687 292.085 202.342 290.229 202.342C288.382 202.342 286.803 201.687 285.493 200.376C284.183 199.066 283.528 197.487 283.528 195.64C283.528 193.785 284.183 192.202 285.493 190.892C286.803 189.581 288.382 188.926 290.229 188.926C292.085 188.926 293.667 189.581 294.978 190.892C295.23 191.152 295.462 191.425 295.674 191.709V190.013H296.772V202ZM295.674 196.727V194.554C295.47 193.479 294.961 192.535 294.148 191.722C293.065 190.639 291.759 190.098 290.229 190.098C288.699 190.098 287.393 190.639 286.311 191.722C285.228 192.804 284.687 194.11 284.687 195.64C284.687 197.17 285.228 198.476 286.311 199.559C287.393 200.633 288.699 201.17 290.229 201.17C291.759 201.17 293.065 200.629 294.148 199.546C294.961 198.733 295.47 197.793 295.674 196.727ZM319.763 194.493C319.551 193.443 319.047 192.519 318.249 191.722C317.167 190.639 315.861 190.098 314.331 190.098C312.801 190.098 311.495 190.639 310.412 191.722C309.33 192.804 308.789 194.11 308.789 195.64C308.789 197.17 309.33 198.476 310.412 199.559C311.495 200.641 312.801 201.182 314.331 201.182C315.861 201.182 317.167 200.641 318.249 199.559C319.039 198.769 319.543 197.854 319.763 196.812V194.493ZM319.738 199.62C319.535 199.88 319.315 200.132 319.079 200.376C317.769 201.687 316.186 202.342 314.331 202.342C312.483 202.342 310.905 201.687 309.594 200.376C308.284 199.066 307.629 197.487 307.629 195.64C307.629 193.785 308.284 192.206 309.594 190.904C310.905 189.594 312.483 188.938 314.331 188.938C316.186 188.938 317.769 189.59 319.079 190.892C319.332 191.152 319.563 191.425 319.775 191.709V190.013H320.874V199.327C320.874 201.125 320.235 202.663 318.957 203.941C317.647 205.251 316.068 205.906 314.221 205.906C312.365 205.906 310.783 205.251 309.472 203.941C309.204 203.672 308.964 203.392 308.752 203.099L309.912 202.684C310.034 202.83 310.164 202.972 310.302 203.111C311.385 204.193 312.691 204.734 314.221 204.734C315.743 204.734 317.045 204.193 318.127 203.111C319.112 202.126 319.649 200.962 319.738 199.62ZM334.367 199.754C335.401 200.698 336.63 201.17 338.054 201.17C339.584 201.17 340.89 200.629 341.972 199.546C342.111 199.408 342.241 199.266 342.363 199.119L343.523 199.534C343.311 199.827 343.071 200.108 342.802 200.376C341.492 201.687 339.909 202.342 338.054 202.342C336.207 202.342 334.628 201.687 333.318 200.376C332.007 199.066 331.352 197.483 331.352 195.628C331.352 193.781 332.007 192.202 333.318 190.892C334.628 189.581 336.207 188.926 338.054 188.926C339.641 188.926 341.028 189.402 342.216 190.354C342.412 190.517 342.607 190.696 342.802 190.892C342.876 190.965 342.945 191.038 343.01 191.111L342.18 191.941L334.367 199.754ZM341.374 191.197C340.422 190.464 339.315 190.098 338.054 190.098C336.532 190.098 335.23 190.639 334.148 191.722C333.065 192.796 332.524 194.098 332.524 195.628C332.524 196.889 332.89 197.996 333.623 198.948L341.374 191.197ZM373.403 195.835C372.467 195.331 371.82 194.9 371.462 194.542C370.901 193.98 370.62 193.305 370.62 192.515C370.62 191.718 370.901 191.038 371.462 190.477C372.024 189.907 372.699 189.622 373.488 189.622C374.286 189.622 374.945 189.882 375.466 190.403C375.971 190.916 376.223 191.498 376.223 192.149V192.21L375.271 192.588C375.189 191.97 374.994 191.506 374.685 191.197C374.384 190.888 373.985 190.733 373.488 190.733C373 190.733 372.581 190.908 372.231 191.258C371.881 191.6 371.706 192.019 371.706 192.515C371.706 193.003 371.881 193.423 372.231 193.772C372.435 193.976 372.866 194.285 373.525 194.7C374.567 195.27 375.307 195.774 375.747 196.214C376.438 196.914 376.784 197.748 376.784 198.716C376.784 199.709 376.438 200.556 375.747 201.255C375.055 201.947 374.217 202.293 373.232 202.293C372.247 202.293 371.409 201.947 370.717 201.255C370.026 200.556 369.68 199.791 369.68 198.96L370.766 198.68C370.766 199.396 371.006 199.994 371.486 200.474C371.975 200.954 372.557 201.194 373.232 201.194C373.908 201.194 374.485 200.954 374.965 200.474C375.454 199.994 375.698 199.408 375.698 198.716C375.698 198.041 375.458 197.463 374.978 196.983C374.717 196.722 374.192 196.34 373.403 195.835ZM392.341 202.171C390.844 202.171 389.651 201.727 388.764 200.84C387.877 199.953 387.422 198.834 387.397 197.483V190.013H388.496V197.386C388.496 198.403 388.866 199.27 389.607 199.986C390.339 200.71 391.246 201.072 392.329 201.072C393.338 201.072 394.209 200.714 394.941 199.998C395.682 199.274 396.052 198.403 396.052 197.386V190.013H397.151V197.483C397.126 198.834 396.67 199.953 395.783 200.84C394.896 201.727 393.749 202.171 392.341 202.171ZM408.325 190.013H409.424V192.198C409.651 191.872 409.916 191.559 410.217 191.258C411.185 190.289 412.178 189.781 413.195 189.732V190.928C412.504 190.961 411.788 191.347 411.047 192.088C410.005 193.121 409.464 194.362 409.424 195.811V202H408.325V190.013ZM440.39 182.469V202H439.292V182.469H440.39ZM453.835 199.754C454.869 200.698 456.097 201.17 457.522 201.17C459.052 201.17 460.358 200.629 461.44 199.546C461.578 199.408 461.709 199.266 461.831 199.119L462.99 199.534C462.779 199.827 462.539 200.108 462.27 200.376C460.96 201.687 459.377 202.342 457.522 202.342C455.674 202.342 454.096 201.687 452.785 200.376C451.475 199.066 450.82 197.483 450.82 195.628C450.82 193.781 451.475 192.202 452.785 190.892C454.096 189.581 455.674 188.926 457.522 188.926C459.109 188.926 460.496 189.402 461.684 190.354C461.88 190.517 462.075 190.696 462.27 190.892C462.343 190.965 462.413 191.038 462.478 191.111L461.648 191.941L453.835 199.754ZM460.842 191.197C459.89 190.464 458.783 190.098 457.522 190.098C456 190.098 454.698 190.639 453.615 191.722C452.533 192.796 451.992 194.098 451.992 195.628C451.992 196.889 452.358 197.996 453.09 198.948L460.842 191.197ZM499.853 199.119L501.013 199.534C500.801 199.827 500.561 200.108 500.293 200.376C498.982 201.687 497.4 202.342 495.544 202.342C493.697 202.342 492.118 201.687 490.808 200.376C489.498 199.066 488.842 197.483 488.842 195.628C488.842 193.781 489.498 192.202 490.808 190.892C492.118 189.581 493.697 188.926 495.544 188.926C497.4 188.926 498.982 189.581 500.293 190.892C500.561 191.16 500.801 191.437 501.013 191.722L499.853 192.149C499.731 192.002 499.601 191.856 499.463 191.709C498.38 190.635 497.074 190.098 495.544 190.098C494.022 190.098 492.72 190.639 491.638 191.722C490.556 192.796 490.014 194.098 490.014 195.628C490.014 197.158 490.556 198.464 491.638 199.546C492.72 200.629 494.022 201.17 495.544 201.17C497.074 201.17 498.38 200.629 499.463 199.546C499.601 199.408 499.731 199.266 499.853 199.119ZM517.424 188.926C519.279 188.926 520.858 189.581 522.16 190.892C523.471 192.202 524.126 193.785 524.126 195.64C524.126 197.487 523.471 199.066 522.16 200.376C520.858 201.687 519.279 202.342 517.424 202.342C515.577 202.342 513.998 201.687 512.688 200.376C511.377 199.066 510.722 197.487 510.722 195.64C510.722 193.785 511.377 192.202 512.688 190.892C513.998 189.581 515.577 188.926 517.424 188.926ZM517.424 190.098C515.894 190.098 514.588 190.639 513.506 191.722C512.423 192.804 511.882 194.11 511.882 195.64C511.882 197.17 512.423 198.476 513.506 199.559C514.588 200.633 515.894 201.17 517.424 201.17C518.954 201.17 520.26 200.633 521.342 199.559C522.425 198.476 522.966 197.17 522.966 195.64C522.966 194.11 522.425 192.804 521.342 191.722C520.26 190.639 518.954 190.098 517.424 190.098ZM535.654 192.686V202H534.555V190.013H535.654V190.782C536.655 189.789 537.819 189.292 539.145 189.292C540.561 189.292 541.713 189.736 542.6 190.623C543.487 191.51 543.943 192.629 543.967 193.98V202H542.868V194.078C542.868 193.06 542.498 192.194 541.757 191.478C541.025 190.753 540.154 190.391 539.145 190.391C538.136 190.391 537.265 190.745 536.533 191.453C536.134 191.852 535.841 192.263 535.654 192.686ZM565.42 199.119L566.579 199.534C566.368 199.827 566.128 200.108 565.859 200.376C564.549 201.687 562.966 202.342 561.111 202.342C559.263 202.342 557.684 201.687 556.374 200.376C555.064 199.066 554.409 197.483 554.409 195.628C554.409 193.781 555.064 192.202 556.374 190.892C557.684 189.581 559.263 188.926 561.111 188.926C562.966 188.926 564.549 189.581 565.859 190.892C566.128 191.16 566.368 191.437 566.579 191.722L565.42 192.149C565.298 192.002 565.167 191.856 565.029 191.709C563.947 190.635 562.64 190.098 561.111 190.098C559.589 190.098 558.287 190.639 557.204 191.722C556.122 192.796 555.581 194.098 555.581 195.628C555.581 197.158 556.122 198.464 557.204 199.546C558.287 200.629 559.589 201.17 561.111 201.17C562.64 201.17 563.947 200.629 565.029 199.546C565.167 199.408 565.298 199.266 565.42 199.119ZM579.304 199.754C580.337 200.698 581.566 201.17 582.99 201.17C584.52 201.17 585.827 200.629 586.909 199.546C587.047 199.408 587.177 199.266 587.299 199.119L588.459 199.534C588.248 199.827 588.007 200.108 587.739 200.376C586.429 201.687 584.846 202.342 582.99 202.342C581.143 202.342 579.564 201.687 578.254 200.376C576.944 199.066 576.289 197.483 576.289 195.628C576.289 193.781 576.944 192.202 578.254 190.892C579.564 189.581 581.143 188.926 582.99 188.926C584.577 188.926 585.965 189.402 587.153 190.354C587.348 190.517 587.544 190.696 587.739 190.892C587.812 190.965 587.881 191.038 587.946 191.111L587.116 191.941L579.304 199.754ZM586.311 191.197C585.359 190.464 584.252 190.098 582.99 190.098C581.469 190.098 580.167 190.639 579.084 191.722C578.002 192.796 577.461 194.098 577.461 195.628C577.461 196.889 577.827 197.996 578.559 198.948L586.311 191.197ZM598.901 190.013H600V191.697C600.203 191.421 600.435 191.152 600.695 190.892C602.006 189.59 603.584 188.938 605.432 188.938C607.287 188.938 608.866 189.594 610.168 190.904C611.478 192.206 612.133 193.785 612.133 195.64C612.133 197.487 611.478 199.066 610.168 200.376C608.866 201.687 607.287 202.342 605.432 202.342C603.584 202.342 602.006 201.687 600.695 200.376C600.435 200.116 600.203 199.847 600 199.571V206.578H598.901V190.013ZM600 194.493V196.788C600.211 197.837 600.716 198.761 601.513 199.559C602.596 200.641 603.902 201.182 605.432 201.182C606.962 201.182 608.268 200.641 609.35 199.559C610.433 198.476 610.974 197.17 610.974 195.64C610.974 194.11 610.433 192.804 609.35 191.722C608.268 190.639 606.962 190.098 605.432 190.098C603.902 190.098 602.596 190.639 601.513 191.722C600.716 192.519 600.211 193.443 600 194.493ZM624.394 190.013V184.91H625.493V190.013H627.934V191.111H625.493V202H624.394V191.111H621.953V190.013H624.394ZM168.081 231H166.982V228.559C166.771 228.843 166.539 229.116 166.286 229.376C164.976 230.687 163.393 231.342 161.538 231.342C159.69 231.342 158.112 230.687 156.801 229.376C155.491 228.066 154.836 226.487 154.836 224.64C154.836 222.785 155.491 221.202 156.801 219.892C158.112 218.581 159.69 217.926 161.538 217.926C163.393 217.926 164.976 218.581 166.286 219.892C166.539 220.152 166.771 220.425 166.982 220.709V211.469H168.081V231ZM166.982 225.727V223.554C166.779 222.479 166.27 221.535 165.456 220.722C164.374 219.639 163.068 219.098 161.538 219.098C160.008 219.098 158.702 219.639 157.619 220.722C156.537 221.804 155.996 223.11 155.996 224.64C155.996 226.17 156.537 227.476 157.619 228.559C158.702 229.633 160.008 230.17 161.538 230.17C163.068 230.17 164.374 229.629 165.456 228.546C166.27 227.733 166.779 226.793 166.982 225.727ZM184.187 231.171C182.689 231.171 181.497 230.727 180.61 229.84C179.723 228.953 179.267 227.834 179.243 226.483V219.013H180.341V226.386C180.341 227.403 180.712 228.27 181.452 228.986C182.185 229.71 183.092 230.072 184.174 230.072C185.184 230.072 186.054 229.714 186.787 228.998C187.527 228.274 187.898 227.403 187.898 226.386V219.013H188.996V226.483C188.972 227.834 188.516 228.953 187.629 229.84C186.742 230.727 185.595 231.171 184.187 231.171ZM226.591 228.119L227.751 228.534C227.54 228.827 227.299 229.108 227.031 229.376C225.721 230.687 224.138 231.342 222.282 231.342C220.435 231.342 218.856 230.687 217.546 229.376C216.236 228.066 215.581 226.483 215.581 224.628C215.581 222.781 216.236 221.202 217.546 219.892C218.856 218.581 220.435 217.926 222.282 217.926C224.138 217.926 225.721 218.581 227.031 219.892C227.299 220.16 227.54 220.437 227.751 220.722L226.591 221.149C226.469 221.002 226.339 220.856 226.201 220.709C225.118 219.635 223.812 219.098 222.282 219.098C220.761 219.098 219.459 219.639 218.376 220.722C217.294 221.796 216.753 223.098 216.753 224.628C216.753 226.158 217.294 227.464 218.376 228.546C219.459 229.629 220.761 230.17 222.282 230.17C223.812 230.17 225.118 229.629 226.201 228.546C226.339 228.408 226.469 228.266 226.591 228.119ZM251.132 231H250.034V228.559C249.822 228.843 249.59 229.116 249.338 229.376C248.028 230.687 246.445 231.342 244.59 231.342C242.742 231.342 241.163 230.687 239.853 229.376C238.543 228.066 237.888 226.487 237.888 224.64C237.888 222.785 238.543 221.202 239.853 219.892C241.163 218.581 242.742 217.926 244.59 217.926C246.445 217.926 248.028 218.581 249.338 219.892C249.59 220.152 249.822 220.425 250.034 220.709V219.013H251.132V231ZM250.034 225.727V223.554C249.83 222.479 249.322 221.535 248.508 220.722C247.426 219.639 246.119 219.098 244.59 219.098C243.06 219.098 241.753 219.639 240.671 220.722C239.589 221.804 239.048 223.11 239.048 224.64C239.048 226.17 239.589 227.476 240.671 228.559C241.753 229.633 243.06 230.17 244.59 230.17C246.119 230.17 247.426 229.629 248.508 228.546C249.322 227.733 249.83 226.793 250.034 225.727ZM263.882 220.111V231H262.783V220.111H261.562V219.013H262.783V215.766C262.832 214.862 263.178 214.085 263.82 213.434C264.488 212.816 265.257 212.506 266.128 212.506C266.583 212.506 267.063 212.592 267.568 212.763L267.226 213.739C266.884 213.593 266.555 213.52 266.237 213.52C265.66 213.52 265.114 213.751 264.602 214.215C264.146 214.663 263.906 215.204 263.882 215.839V219.013H266.323V220.111H263.882ZM278.474 228.754C279.507 229.698 280.736 230.17 282.16 230.17C283.69 230.17 284.996 229.629 286.079 228.546C286.217 228.408 286.347 228.266 286.469 228.119L287.629 228.534C287.417 228.827 287.177 229.108 286.909 229.376C285.599 230.687 284.016 231.342 282.16 231.342C280.313 231.342 278.734 230.687 277.424 229.376C276.114 228.066 275.459 226.483 275.459 224.628C275.459 222.781 276.114 221.202 277.424 219.892C278.734 218.581 280.313 217.926 282.16 217.926C283.747 217.926 285.135 218.402 286.323 219.354C286.518 219.517 286.714 219.696 286.909 219.892C286.982 219.965 287.051 220.038 287.116 220.111L286.286 220.941L278.474 228.754ZM285.481 220.197C284.528 219.464 283.422 219.098 282.16 219.098C280.639 219.098 279.336 219.639 278.254 220.722C277.172 221.796 276.631 223.098 276.631 224.628C276.631 225.889 276.997 226.996 277.729 227.948L285.481 220.197ZM297.656 228.986C297.957 228.986 298.213 229.092 298.425 229.303C298.645 229.515 298.755 229.771 298.755 230.072C298.755 230.382 298.645 230.642 298.425 230.854C298.213 231.065 297.957 231.171 297.656 231.171C297.355 231.171 297.094 231.065 296.875 230.854C296.663 230.642 296.557 230.382 296.557 230.072C296.557 229.771 296.663 229.515 296.875 229.303C297.094 229.092 297.355 228.986 297.656 228.986Z" fill="black"/>
<rect x="728" width="342" height="173" rx="50" fill="#FFDBBF"/>
</svg>
